<mxfile host="app.diagrams.net" agent="Mozilla/5.0 (Windows NT 10.0; Win64; x64) AppleWebKit/537.36 (KHTML, like Gecko) Chrome/131.0.0.0 Safari/537.36" version="25.0.3">
  <diagram name="Trang-1" id="0V7s_kaNrHElFNvp0wMn">
    <mxGraphModel grid="1" page="1" gridSize="10" guides="1" tooltips="1" connect="1" arrows="1" fold="1" pageScale="1" pageWidth="827" pageHeight="1169" math="0" shadow="0">
      <root>
        <mxCell id="0" />
        <mxCell id="1" parent="0" />
        <mxCell id="vNvIxTDeYI9chibii6yW-4" value="" style="edgeStyle=orthogonalEdgeStyle;rounded=0;orthogonalLoop=1;jettySize=auto;html=1;" edge="1" parent="1" source="vNvIxTDeYI9chibii6yW-1" target="vNvIxTDeYI9chibii6yW-3">
          <mxGeometry relative="1" as="geometry" />
        </mxCell>
        <mxCell id="vNvIxTDeYI9chibii6yW-1" value="start" style="ellipse;whiteSpace=wrap;html=1;" vertex="1" parent="1">
          <mxGeometry x="280" y="40" width="120" height="80" as="geometry" />
        </mxCell>
        <mxCell id="vNvIxTDeYI9chibii6yW-2" value="end" style="ellipse;whiteSpace=wrap;html=1;" vertex="1" parent="1">
          <mxGeometry x="280" y="505" width="120" height="80" as="geometry" />
        </mxCell>
        <mxCell id="vNvIxTDeYI9chibii6yW-8" value="" style="edgeStyle=orthogonalEdgeStyle;rounded=0;orthogonalLoop=1;jettySize=auto;html=1;" edge="1" parent="1" source="vNvIxTDeYI9chibii6yW-3" target="vNvIxTDeYI9chibii6yW-7">
          <mxGeometry relative="1" as="geometry" />
        </mxCell>
        <mxCell id="vNvIxTDeYI9chibii6yW-3" value="nhập số ngdương&lt;div&gt;n&lt;/div&gt;" style="shape=parallelogram;perimeter=parallelogramPerimeter;whiteSpace=wrap;html=1;fixedSize=1;" vertex="1" parent="1">
          <mxGeometry x="280" y="150" width="120" height="60" as="geometry" />
        </mxCell>
        <mxCell id="vNvIxTDeYI9chibii6yW-10" value="" style="edgeStyle=orthogonalEdgeStyle;rounded=0;orthogonalLoop=1;jettySize=auto;html=1;" edge="1" parent="1" source="vNvIxTDeYI9chibii6yW-7" target="vNvIxTDeYI9chibii6yW-9">
          <mxGeometry relative="1" as="geometry" />
        </mxCell>
        <mxCell id="vNvIxTDeYI9chibii6yW-7" value="for(i=1; i&amp;lt;=n ; i++)" style="rounded=0;whiteSpace=wrap;html=1;" vertex="1" parent="1">
          <mxGeometry x="280" y="240" width="120" height="60" as="geometry" />
        </mxCell>
        <mxCell id="vNvIxTDeYI9chibii6yW-12" value="" style="edgeStyle=orthogonalEdgeStyle;rounded=0;orthogonalLoop=1;jettySize=auto;html=1;" edge="1" parent="1" source="vNvIxTDeYI9chibii6yW-9" target="vNvIxTDeYI9chibii6yW-11">
          <mxGeometry relative="1" as="geometry" />
        </mxCell>
        <mxCell id="vNvIxTDeYI9chibii6yW-14" value="" style="edgeStyle=orthogonalEdgeStyle;rounded=0;orthogonalLoop=1;jettySize=auto;html=1;" edge="1" parent="1" source="vNvIxTDeYI9chibii6yW-9" target="vNvIxTDeYI9chibii6yW-2">
          <mxGeometry relative="1" as="geometry" />
        </mxCell>
        <mxCell id="vNvIxTDeYI9chibii6yW-9" value="n % i == 0" style="rhombus;whiteSpace=wrap;html=1;" vertex="1" parent="1">
          <mxGeometry x="300" y="340" width="80" height="80" as="geometry" />
        </mxCell>
        <mxCell id="vNvIxTDeYI9chibii6yW-16" style="edgeStyle=orthogonalEdgeStyle;rounded=0;orthogonalLoop=1;jettySize=auto;html=1;entryX=1;entryY=0.5;entryDx=0;entryDy=0;" edge="1" parent="1" source="vNvIxTDeYI9chibii6yW-11" target="vNvIxTDeYI9chibii6yW-2">
          <mxGeometry relative="1" as="geometry">
            <Array as="points">
              <mxPoint x="520" y="545" />
            </Array>
          </mxGeometry>
        </mxCell>
        <mxCell id="vNvIxTDeYI9chibii6yW-11" value="in ra các ước&amp;nbsp;&lt;div&gt;của n&lt;/div&gt;" style="shape=parallelogram;perimeter=parallelogramPerimeter;whiteSpace=wrap;html=1;fixedSize=1;" vertex="1" parent="1">
          <mxGeometry x="460" y="350" width="120" height="60" as="geometry" />
        </mxCell>
        <mxCell id="vNvIxTDeYI9chibii6yW-13" value="true" style="text;html=1;align=center;verticalAlign=middle;resizable=0;points=[];autosize=1;strokeColor=none;fillColor=none;" vertex="1" parent="1">
          <mxGeometry x="370" y="348" width="40" height="30" as="geometry" />
        </mxCell>
        <mxCell id="vNvIxTDeYI9chibii6yW-15" value="false" style="text;html=1;align=center;verticalAlign=middle;resizable=0;points=[];autosize=1;strokeColor=none;fillColor=none;" vertex="1" parent="1">
          <mxGeometry x="300" y="420" width="50" height="30" as="geometry" />
        </mxCell>
      </root>
    </mxGraphModel>
  </diagram>
</mxfile>
